<mxfile host="app.diagrams.net" agent="Mozilla/5.0 (Windows NT 10.0; Win64; x64) AppleWebKit/537.36 (KHTML, like Gecko) Chrome/131.0.0.0 Safari/537.36" version="26.0.2">
  <diagram name="Page-1" id="ehyXH9d5R6UzSzsPLv_W">
    <mxGraphModel dx="794" dy="1546" grid="1" gridSize="10" guides="1" tooltips="1" connect="1" arrows="1" fold="1" page="1" pageScale="1" pageWidth="850" pageHeight="1100" math="0" shadow="0">
      <root>
        <mxCell id="0" />
        <mxCell id="1" parent="0" />
        <mxCell id="RAxoxHoClZKjb_iJJKfa-1" value="Remote Repo" style="rounded=1;whiteSpace=wrap;html=1;" vertex="1" parent="1">
          <mxGeometry x="410" y="-100" width="120" height="60" as="geometry" />
        </mxCell>
        <mxCell id="RAxoxHoClZKjb_iJJKfa-2" style="edgeStyle=orthogonalEdgeStyle;rounded=0;orthogonalLoop=1;jettySize=auto;html=1;exitX=0.5;exitY=1;exitDx=0;exitDy=0;" edge="1" parent="1" source="RAxoxHoClZKjb_iJJKfa-1" target="RAxoxHoClZKjb_iJJKfa-1">
          <mxGeometry relative="1" as="geometry" />
        </mxCell>
        <mxCell id="RAxoxHoClZKjb_iJJKfa-10" style="edgeStyle=orthogonalEdgeStyle;rounded=0;orthogonalLoop=1;jettySize=auto;html=1;entryX=0;entryY=0.5;entryDx=0;entryDy=0;" edge="1" parent="1" source="RAxoxHoClZKjb_iJJKfa-5" target="RAxoxHoClZKjb_iJJKfa-7">
          <mxGeometry relative="1" as="geometry" />
        </mxCell>
        <mxCell id="RAxoxHoClZKjb_iJJKfa-5" value="" style="verticalLabelPosition=bottom;html=1;verticalAlign=top;align=center;strokeColor=none;fillColor=#00BEF2;shape=mxgraph.azure.laptop;pointerEvents=1;" vertex="1" parent="1">
          <mxGeometry x="110" y="180" width="140" height="90" as="geometry" />
        </mxCell>
        <mxCell id="RAxoxHoClZKjb_iJJKfa-7" value="staging/Temp area" style="ellipse;whiteSpace=wrap;html=1;" vertex="1" parent="1">
          <mxGeometry x="210" y="90" width="90" height="50" as="geometry" />
        </mxCell>
        <mxCell id="RAxoxHoClZKjb_iJJKfa-19" style="edgeStyle=orthogonalEdgeStyle;rounded=0;orthogonalLoop=1;jettySize=auto;html=1;" edge="1" parent="1">
          <mxGeometry relative="1" as="geometry">
            <mxPoint x="345" y="25" as="sourcePoint" />
            <mxPoint x="410" y="-70" as="targetPoint" />
            <Array as="points">
              <mxPoint x="345" y="-70" />
            </Array>
          </mxGeometry>
        </mxCell>
        <mxCell id="RAxoxHoClZKjb_iJJKfa-12" value="local repo" style="ellipse;whiteSpace=wrap;html=1;" vertex="1" parent="1">
          <mxGeometry x="300" y="10" width="60" height="50" as="geometry" />
        </mxCell>
        <mxCell id="RAxoxHoClZKjb_iJJKfa-14" style="edgeStyle=orthogonalEdgeStyle;rounded=0;orthogonalLoop=1;jettySize=auto;html=1;entryX=-0.011;entryY=0.253;entryDx=0;entryDy=0;entryPerimeter=0;" edge="1" parent="1" source="RAxoxHoClZKjb_iJJKfa-7" target="RAxoxHoClZKjb_iJJKfa-12">
          <mxGeometry relative="1" as="geometry" />
        </mxCell>
        <mxCell id="RAxoxHoClZKjb_iJJKfa-20" value="" style="verticalLabelPosition=bottom;html=1;verticalAlign=top;align=center;strokeColor=none;fillColor=#00BEF2;shape=mxgraph.azure.laptop;pointerEvents=1;" vertex="1" parent="1">
          <mxGeometry x="610" y="170" width="140" height="90" as="geometry" />
        </mxCell>
        <mxCell id="RAxoxHoClZKjb_iJJKfa-21" style="edgeStyle=orthogonalEdgeStyle;rounded=0;orthogonalLoop=1;jettySize=auto;html=1;exitX=1;exitY=0.5;exitDx=0;exitDy=0;entryX=0.5;entryY=0;entryDx=0;entryDy=0;entryPerimeter=0;" edge="1" parent="1">
          <mxGeometry relative="1" as="geometry">
            <mxPoint x="530" y="-90" as="sourcePoint" />
            <mxPoint x="660" y="170" as="targetPoint" />
            <Array as="points">
              <mxPoint x="530" y="-70" />
              <mxPoint x="660" y="-70" />
            </Array>
          </mxGeometry>
        </mxCell>
        <mxCell id="RAxoxHoClZKjb_iJJKfa-26" value="Clone" style="text;html=1;align=center;verticalAlign=middle;resizable=0;points=[];autosize=1;strokeColor=none;fillColor=none;" vertex="1" parent="1">
          <mxGeometry x="580" y="-70" width="50" height="30" as="geometry" />
        </mxCell>
        <mxCell id="RAxoxHoClZKjb_iJJKfa-29" value="pull" style="text;html=1;align=center;verticalAlign=middle;resizable=0;points=[];autosize=1;strokeColor=none;fillColor=none;" vertex="1" parent="1">
          <mxGeometry x="580" y="-50" width="40" height="30" as="geometry" />
        </mxCell>
        <mxCell id="RAxoxHoClZKjb_iJJKfa-30" value="push" style="text;html=1;align=center;verticalAlign=middle;resizable=0;points=[];autosize=1;strokeColor=none;fillColor=none;" vertex="1" parent="1">
          <mxGeometry x="335" y="-102" width="50" height="30" as="geometry" />
        </mxCell>
        <mxCell id="RAxoxHoClZKjb_iJJKfa-31" value="Distributed" style="text;html=1;align=center;verticalAlign=middle;resizable=0;points=[];autosize=1;strokeColor=none;fillColor=none;" vertex="1" parent="1">
          <mxGeometry x="420" y="-132" width="80" height="30" as="geometry" />
        </mxCell>
      </root>
    </mxGraphModel>
  </diagram>
</mxfile>
